<svg xmlns="http://www.w3.org/2000/svg" width="100" height="27" fill="none"><g clip-path="url(#a)"><path fill="#181818" d="M92.403 21.768q-2.202 0-3.731-1.047a6.5 6.5 0 0 1-2.255-2.71 9 9 0 0 1-.725-3.597q0-1.934.725-3.597a6.5 6.5 0 0 1 2.255-2.738q1.53-1.047 3.758-1.047 2.952 0 4.67 1.906 1.745 1.906 1.745 5.502v.886H88.86v.215q0 .94.43 1.771a3.7 3.7 0 0 0 1.234 1.342q.805.484 1.825.484 1.155 0 1.96-.537a3.46 3.46 0 0 0 1.207-1.503h3.194q-.563 2.04-2.174 3.355t-4.133 1.315m3.301-8.59q-.054-1.932-.966-2.818-.886-.912-2.335-.912-1.557 0-2.497 1.02-.912.994-.966 2.71zm-16.858 8.59q-1.772 0-3.06-.67-1.289-.672-1.96-1.746-.67-1.1-.67-2.308v-.161h3.193v.161q0 .832.671 1.503.672.67 1.906.671 1.02 0 1.664-.483t.644-1.342q0-.752-.563-1.181-.537-.429-1.342-.537l-1.691-.322a6.56 6.56 0 0 1-2.9-1.208q-1.233-.966-1.234-2.872 0-1.986 1.45-3.113t3.73-1.128q1.665 0 2.873.618 1.234.617 1.852 1.61.644.993.644 2.147v.108h-3.194v-.08q0-.726-.564-1.37-.537-.644-1.718-.644-.993 0-1.583.51-.59.483-.59 1.289 0 .697.536 1.127.563.43 1.396.59l1.852.322q1.745.349 2.925 1.316 1.181.966 1.181 2.764 0 1.315-.724 2.335-.699.994-1.96 1.557-1.234.537-2.764.537m-8.994-.106q-1.851 0-2.737-.563-.886-.59-1.128-1.45-.215-.885-.215-2.255V1.424h3.248v15.353q0 .993.08 1.476.108.483.538.779.429.268 1.368.268a8 8 0 0 0 .833-.053V21.5q-.86.16-1.987.161Zm-6.858-.107h-3.275v-2.389h-.16q-.51 1.1-1.611 1.879-1.074.778-2.63.778-1.853 0-2.98-.885a4.87 4.87 0 0 1-1.584-2.255 8.5 8.5 0 0 1-.456-2.765V7.383h3.248v8.025q0 1.718.805 2.685.806.966 2.228.966 1.53 0 2.335-1.02.805-1.047.805-2.63V7.382h3.275zM42.165 2.766q2.256 0 3.758.912 1.503.913 2.201 2.362.725 1.45.725 3.087t-.698 3.087q-.698 1.422-2.201 2.308t-3.785.886h-3.57v6.147h-3.194V2.765zm-.483 9.93q1.692 0 2.845-.804 1.155-.833 1.155-2.765 0-1.905-1.155-2.684-1.127-.805-2.845-.805h-3.087v7.059z"/><mask id="b" width="26" height="26" x="1" y="1" maskUnits="userSpaceOnUse" style="mask-type:luminance"><path fill="#fff" d="M26.997 1.42H1.274v24.605h25.723z"/></mask><g fill="#564AFF" mask="url(#b)"><path d="M1.274 8.106v6.703c0 1.755 2.78 1.762 2.78 0V8.106c0-.363-.146-.71-.407-.966-.26-.257-.614-.4-.983-.4-.368 0-.722.143-.982.4a1.35 1.35 0 0 0-.408.966m22.952-.001v6.704c.025.344.182.666.44.901a1.404 1.404 0 0 0 1.892 0c.258-.235.415-.557.44-.902V8.105a1.36 1.36 0 0 0-.44-.901 1.403 1.403 0 0 0-1.893 0 1.36 1.36 0 0 0-.44.901ZM7.01 2.746v17.262c0 .362.147.71.408.966a1.405 1.405 0 0 0 1.966 0c.26-.256.407-.604.407-.966V2.746c0-.362-.147-.71-.407-.966a1.405 1.405 0 0 0-1.966 0c-.26.256-.407.604-.407.966Zm11.47 0v17.262c0 .362.146.71.407.966a1.4 1.4 0 0 0 1.966 0c.26-.256.407-.604.407-.966V2.746c0-.362-.147-.71-.408-.966-.26-.256-.614-.4-.983-.4-.368 0-.722.144-.982.4a1.35 1.35 0 0 0-.407.966m-5.733 4.725v17.261c0 1.755 2.78 1.763 2.78 0V7.472c0-1.756-2.78-1.763-2.78 0Z"/></g></g><defs><clipPath id="a"><path fill="#fff" d="M.63.639h98.418v25.723H.63z"/></clipPath></defs></svg>